<svg width="700" height="700" viewBox="0 0 99 100" fill="none" xmlns="http://www.w3.org/2000/svg">
<path d="M72.4823 38.1594C72.3662 37.8981 72.192 37.6948 72.0468 37.4626C71.8726 37.2303 71.6984 37.0271 71.4952 36.8529C71.292 36.6787 71.0597 36.5625 70.7694 36.4464C70.5371 36.3883 70.2468 36.3593 69.9564 36.3883C69.4048 36.4464 68.8532 36.6496 68.3596 36.8819C67.3434 37.3755 66.3853 38.0142 65.4562 38.682C64.5272 39.3497 63.6271 40.0466 62.7271 40.7434L60.2883 42.6305C59.4754 43.2693 58.6334 43.8499 57.8205 44.4596C56.9785 45.0403 56.1365 45.65 55.2655 46.1726L53.959 46.9855L52.5945 47.7114C51.6944 48.234 50.7073 48.6114 49.7492 49.0469L48.2975 49.5695L47.5717 49.8308L46.7878 50.034L45.249 50.4115C44.7264 50.5276 44.2038 50.5857 43.6812 50.7018C42.636 50.905 41.5908 50.9631 40.5456 51.0502C39.5004 51.0792 38.4552 51.1373 37.41 51.1083L35.8422 51.0792L34.2744 50.9631C34.1292 50.9631 34.0131 50.9341 33.8679 50.9341C39.9069 55.2891 47.833 57.002 55.6139 54.8826C63.9755 52.618 70.2177 46.492 72.8888 38.9723C72.7727 38.74 72.6275 38.4497 72.4823 38.1594Z" fill="#21205F"/>
<path d="M73.4985 26.0525C73.3243 26.0525 73.034 26.0815 72.7727 26.1686C72.2501 26.3138 71.6985 26.5751 71.1468 26.8654C70.0436 27.4461 68.9984 28.201 67.9532 28.9268L64.7885 31.1914C63.7143 31.9463 62.64 32.6721 61.5658 33.3979C61.0142 33.7463 60.4625 34.0657 59.9109 34.4141C59.3593 34.7625 58.7786 35.0528 58.1979 35.3722C57.6463 35.6916 57.0366 35.9819 56.4559 36.2722C55.8753 36.5626 55.2946 36.8529 54.6849 37.0561C54.0752 37.2884 53.4945 37.5787 52.8558 37.7529L50.9686 38.3336L49.0524 38.7691C48.4137 38.9143 47.7749 38.9723 47.1362 39.0594C46.4975 39.1756 45.8297 39.2046 45.191 39.2336C44.5232 39.2917 43.8845 39.3208 43.2457 39.2917C42.578 39.2917 41.9392 39.3208 41.3005 39.2917C40.6327 39.2627 39.994 39.2627 39.3553 39.2046C38.0488 39.1175 36.7713 39.0304 35.4648 38.8853L31.6034 38.4788C30.3259 38.3626 29.0194 38.2465 27.7419 38.2755C27.1032 38.2755 26.4644 38.3336 25.8838 38.4788C25.5934 38.5368 25.3612 38.6239 25.1289 38.7691C26.1741 41.8757 27.8 44.6339 29.8323 46.9856C29.9484 47.0146 30.0355 47.0146 30.1517 47.0146C31.5453 47.2178 32.9389 47.392 34.3325 47.5372C35.7261 47.6824 37.1197 47.7985 38.5133 47.8275C39.2101 47.8275 39.9069 47.8566 40.6037 47.8275C41.3005 47.7985 41.9973 47.7695 42.6651 47.7114C43.3328 47.6243 44.0296 47.5372 44.6974 47.4501L46.7297 47.0146L48.704 46.4049C49.3428 46.1726 49.9815 45.8823 50.6202 45.621C51.259 45.3307 51.8687 45.0113 52.4784 44.721C53.0881 44.4016 53.6978 44.0242 54.3075 43.7048C55.4978 42.979 56.6592 42.2241 57.7915 41.4112C58.9238 40.5982 60.0561 39.7562 61.1593 38.9143C62.2916 38.0723 63.4239 37.2303 64.6143 36.4174C65.8047 35.6335 67.0531 34.8786 68.4758 34.4722C69.1726 34.298 69.9565 34.2109 70.7113 34.356C71.4372 34.5012 72.163 34.8496 72.6856 35.3722C72.9469 35.6335 73.2082 35.8948 73.4405 36.1851C74.1663 32.9624 74.2244 29.5365 73.5276 26.1106C73.4985 26.0525 73.4985 26.0525 73.4985 26.0525Z" fill="#21205F"/>
<path d="M33.4615 36.0109C34.8842 36.1851 36.3068 36.3303 37.7004 36.4754C39.123 36.5916 40.5166 36.6787 41.9393 36.7077C42.6361 36.7077 43.3619 36.7077 44.0587 36.6787C44.7555 36.6206 45.4523 36.5916 46.1491 36.5335C46.8459 36.4174 47.5427 36.3593 48.2105 36.2141L50.2138 35.7496L52.2461 35.0818C52.8849 34.8205 53.4946 34.5302 54.1333 34.2689C54.772 33.9786 55.3817 33.6302 55.9914 33.3108C56.6011 32.9914 57.2108 32.585 57.7915 32.2366C58.9819 31.4817 60.1142 30.6978 61.2465 29.8558C62.1175 29.2171 62.9595 28.5493 63.8305 27.8816C62.6401 28.259 61.4787 28.5784 60.3755 28.8977L60.2303 28.9268C59.94 28.9848 59.6787 29.0429 59.3883 29.13C58.8077 29.2752 58.227 29.4203 57.5883 29.5365L57.4721 29.5655C57.2108 29.5945 56.9205 29.6526 56.6592 29.7107C56.0785 29.8268 55.4979 29.9139 54.8591 30.03L54.6849 30.0591C54.3946 30.0881 54.1043 30.1171 53.8139 30.1462C53.2623 30.2042 52.7107 30.2623 52.13 30.3204L51.8397 30.3494L49.0234 30.4075L46.0911 30.2042C45.5104 30.1462 44.9297 30.0591 44.349 29.972C44.0587 29.9429 43.7974 29.8849 43.5071 29.8558L43.3329 29.8268C42.7232 29.7107 42.1715 29.5945 41.6199 29.4784C41.3296 29.4203 41.0392 29.3623 40.7489 29.3042L40.6328 29.2752C40.0231 29.13 39.4424 28.9558 38.8908 28.8106C38.6004 28.7235 38.3391 28.6364 38.0488 28.5784L37.9036 28.5493C36.2778 28.0558 34.5938 27.4751 32.8228 26.8073C31.0808 26.1396 29.3969 25.4428 27.9452 24.8621C27.5387 24.6879 26.8419 24.3976 25.9709 24.0201C25.5354 23.8459 25.0709 23.6427 24.5483 23.4395C23.2708 27.4461 23.0385 31.8301 23.9966 36.1851C24.2289 36.098 24.4612 36.0109 24.6934 35.9528C26.2032 35.5754 27.6839 35.6044 29.1356 35.6915C30.6163 35.6915 32.0389 35.8367 33.4615 36.0109Z" fill="#F7923A"/>
<path d="M42.3746 10.8388C45.2489 13.7132 51.3169 18.4746 67.3724 14.0906C62.7561 9.15491 56.1365 6.07737 48.791 6.1064C45.8296 6.1064 42.9843 6.629 40.3713 7.58711C40.7197 8.66134 41.3294 9.79365 42.3746 10.8388Z" fill="#F7923A"/>
<path d="M71.5534 20.1586C71.1759 19.4037 70.7695 18.6779 70.334 17.952C65.3983 18.823 60.9562 19.2876 57.0367 19.2876C48.8493 19.3166 42.8974 17.4875 39.2682 13.7712C37.8746 12.3486 37.0036 10.8098 36.452 9.35815C32.097 11.797 28.5549 15.5132 26.3484 19.9844C31.197 23.0038 48.9073 31.9461 71.5534 20.1586Z" fill="#F7923A"/>
<path d="M91.3143 85.4518L87.1792 80.96L90.8783 76.706L88.54 76.7192L85.2768 80.9864L88.6985 85.465L91.3143 85.4518ZM82.9516 85.4914L84.8144 85.4782L84.7616 72.9805L82.8988 72.9937L82.9516 85.4914ZM73.8228 85.5178H75.6855L75.6723 81.9112C75.6591 79.8502 76.8481 78.1724 78.3278 78.1724C79.3054 78.1724 79.9527 78.7801 79.9527 79.7049L79.9791 85.4914L81.8287 85.4782L81.8023 79.3086C81.7891 77.6836 80.4415 76.6135 78.4202 76.6267C77.2709 76.6267 76.2536 77.4987 75.6327 78.8198L75.5138 76.7721L73.7699 76.7853L73.8228 85.5178ZM66.0943 81.1846C66.0943 79.4935 66.8869 78.3574 68.0759 78.3442L70.3086 78.331L70.3218 81.026C70.335 82.7303 69.331 84.1174 68.1024 84.1306C66.9001 84.1439 66.0943 82.9681 66.0943 81.1846ZM64.1654 81.1978C64.1787 83.8929 65.6055 85.6896 67.7457 85.6764C68.8818 85.6764 69.8859 84.844 70.4804 83.6022L70.586 85.4782L72.2771 85.5707C72.2771 85.5707 72.1978 84.1835 72.1978 83.153L72.1714 76.7721L70.5464 76.7853L70.3218 78.2253L69.3838 76.7853L67.706 76.7985C65.5658 76.8249 64.1522 78.5688 64.1654 81.1978ZM57.5203 74.8036H58.8942C60.2946 74.7904 61.2458 75.4113 61.2458 76.3361C61.2458 77.5647 60.3078 78.397 58.9074 78.4102H57.5335L57.5203 74.8036ZM57.5467 79.9427L59.383 79.9295C60.7966 79.9295 61.7346 80.8411 61.7346 82.2415C61.7478 83.3248 60.8098 84.0514 59.3962 84.0514L57.5599 84.0646L57.5467 79.9427ZM55.5914 85.6103L59.7001 85.5971C62.1045 85.5839 63.7163 84.2363 63.7031 82.2415C63.7031 80.6693 62.2366 79.3747 60.4135 79.0972C61.8931 78.6613 62.9897 77.5779 62.9897 76.3229C62.9764 74.4733 61.3647 73.2447 58.9603 73.2579L55.5518 73.2711L55.5914 85.6103ZM46.2908 85.6499L48.1536 85.6367L48.1404 82.1622C48.1271 80.0352 49.3162 78.3045 50.7958 78.2913C51.7734 78.2781 52.4208 78.8991 52.434 79.8238L52.4604 85.6103L54.3232 85.5971L54.2967 79.4275C54.2835 77.8025 52.936 76.7324 50.9147 76.7324C49.7653 76.7456 48.7613 77.6044 48.1404 78.9519L48.1139 73.1258L46.2512 73.139L46.2908 85.6499ZM38.9586 85.214C39.6985 85.5178 40.795 85.7953 41.6273 85.7953C44.0449 85.782 45.3396 84.8308 45.3264 83.0738C45.3132 81.1978 43.7278 80.7222 42.3671 80.3258C41.4423 80.0484 40.6761 79.6653 40.6629 79.1104C40.6629 78.582 41.2706 78.2913 42.4067 78.2781C43.2919 78.2781 44.0845 78.6084 44.7319 79.1104L44.7187 77.0495C43.9789 76.8513 43.2523 76.7721 42.5124 76.7721C40.1741 76.7853 38.919 77.6176 38.919 79.1501C38.9322 81.1714 40.5836 81.6734 41.9576 82.0697C42.9088 82.3472 43.5825 82.6906 43.5825 83.2719C43.5825 83.9193 43.0277 84.276 41.8387 84.2892C40.9799 84.2892 39.8438 83.9061 38.9322 83.1927L38.9586 85.214ZM31.4679 81.3431C31.4547 79.6389 32.2474 78.5159 33.4496 78.5027L35.6823 78.4895L35.6955 81.1846C35.7087 82.8888 34.7047 84.276 33.4892 84.276C32.2738 84.3024 31.4811 83.1266 31.4679 81.3431ZM29.5391 81.3563C29.5523 84.0514 30.9791 85.8481 33.1061 85.8481C34.2555 85.8349 35.2463 85.0158 35.8408 83.774L35.9465 85.6499L37.6375 85.7424C37.6375 85.7424 37.5583 84.3552 37.5583 83.3248L37.5318 76.9438L35.9069 76.957L35.6823 78.397L34.7443 76.957L33.0797 76.9702C30.9395 76.9702 29.5259 78.7273 29.5391 81.3563ZM19.3666 85.7688L21.2293 85.7556L23.0657 79.8106L24.9549 85.7292L26.8176 85.716L29.5655 76.957L27.2007 76.9702L25.8928 84.1967L24.0565 76.9834L22.1013 76.9966L20.3178 84.2363L18.9042 77.0231L16.5394 77.0363L19.3666 85.7688ZM10.9907 81.7791L12.7742 75.0282L14.6238 81.7526L10.9907 81.7791ZM7.83325 85.8217L9.92061 85.8085L10.6076 83.2323L15.0201 83.2191L15.7203 85.782L17.8076 85.7688L13.7915 73.4561L11.7437 73.4693L7.83325 85.8217Z" fill="#21205F"/>
<path d="M19.0363 73.3241C19.1156 73.3901 19.1685 73.4694 19.1685 73.5354C19.1685 73.5751 19.1156 73.6015 19.0231 73.6279C18.6268 73.6808 18.3362 73.7072 18.1644 73.7072C18.0719 73.7072 17.9927 73.6543 17.9002 73.5354C17.8473 73.4562 17.7945 73.1787 17.7284 72.6899C17.6624 72.1483 17.5831 71.7916 17.4906 71.6066C17.3717 71.3424 17.2 71.1971 16.9886 71.1971C16.9226 71.1971 16.8301 71.2103 16.7376 71.2499C16.6451 71.3556 16.4998 71.6198 16.3016 72.0558C16.0903 72.5182 15.9714 72.8749 15.9714 73.1523C15.9714 73.2844 16.011 73.3505 16.0771 73.3769C16.1827 73.4165 16.2224 73.443 16.2356 73.4694C16.2356 73.509 16.1827 73.5354 16.0638 73.5487C15.7336 73.6015 15.3901 73.6147 15.0202 73.6279C14.822 73.6411 14.7295 73.509 14.7163 73.2712C14.7163 72.8485 14.9409 72.2672 15.4165 71.5274C15.4958 71.3952 15.7071 71.1178 16.0242 70.6818C16.3149 70.2855 16.4866 70.0741 16.5262 70.0345H16.513C16.4338 70.0345 16.3149 70.0477 16.1695 70.0873C16.011 70.1138 15.8921 70.1402 15.8128 70.1402C15.6807 70.1402 15.6147 70.127 15.5882 70.0741C15.5486 70.0081 15.5354 69.876 15.5354 69.6646C15.5354 69.691 15.5354 69.691 15.5486 69.6514V69.3211C15.5486 69.004 15.509 68.8323 15.4297 68.8059C15.324 68.753 15.2712 68.7266 15.2712 68.687C15.2712 68.6473 15.4561 68.5945 15.8393 68.5416C16.1431 68.502 16.3149 68.4756 16.3281 68.4756C16.5394 68.4756 16.6451 68.5416 16.6451 68.6605C16.6451 68.7002 16.6583 68.7398 16.6583 68.7927V69.0833C16.6583 69.4268 16.6848 69.7174 16.7376 69.9288L16.9754 69.9024C17.015 69.9024 17.1207 69.876 17.2661 69.8495C17.3982 69.8231 17.4906 69.8099 17.5567 69.8231C17.6492 69.8231 17.6888 69.8363 17.6888 69.876C17.6888 69.9288 17.5699 70.1006 17.3453 70.3912C17.1075 70.6951 16.949 70.9196 16.8961 71.0518C16.8829 71.065 16.8961 71.065 16.9226 71.065C17.0415 71.065 17.2264 71.0253 17.4774 70.9593C17.7152 70.88 17.9002 70.8536 18.0323 70.8536C18.0984 70.8536 18.1512 70.8536 18.1908 70.8668C18.5343 70.9857 18.7589 71.6198 18.8646 72.756C18.891 73.0334 18.9042 73.192 18.9042 73.2052C18.9042 73.2184 18.9571 73.258 19.0363 73.3241Z" fill="#F7923A"/>
<path d="M22.7752 68.9643C22.7355 68.9643 22.6959 68.9643 22.6827 68.9775C22.6563 69.0172 22.6166 69.3474 22.5506 69.9684L22.4581 70.9592C22.4977 70.9724 22.5374 70.9856 22.5902 70.9856C22.6959 70.9856 22.7884 70.946 22.8808 70.8667C23.1054 70.6685 23.2111 70.2722 23.2111 69.6909V69.572C23.1847 69.1625 23.0526 68.9643 22.7752 68.9643ZM20.9124 69.6117C20.7935 69.8627 20.7274 70.1533 20.7406 70.4836C20.7406 70.6818 20.7539 70.8007 20.7671 70.8535C20.8067 70.9856 20.8992 71.0517 21.0445 71.0517C21.1898 71.0517 21.2955 70.9988 21.3748 70.8799C21.4805 70.074 21.5597 69.4795 21.5994 69.0568C21.2823 69.1228 21.0577 69.3078 20.9124 69.6117ZM24.0698 70.6553C23.8717 70.8931 23.6207 71.0517 23.3168 71.1309C23.1054 71.1838 22.9469 71.2102 22.8412 71.2102C22.7752 71.2102 22.6298 71.197 22.4052 71.1574C22.2599 72.1614 22.1807 72.7559 22.1542 72.9673C22.141 73.0862 22.141 73.1919 22.1674 73.2579C22.1674 73.2711 22.1939 73.2976 22.2335 73.3372C22.2731 73.3768 22.2863 73.4032 22.2863 73.4165C22.2863 73.4693 22.2203 73.4957 22.0882 73.5089C21.7183 73.5486 21.4937 73.575 21.4276 73.575C21.1634 73.575 21.0313 73.4825 21.0313 73.2976C21.0313 73.1126 21.0709 72.7427 21.1634 72.1746C21.2559 71.5801 21.2955 71.2498 21.2955 71.1838C21.0181 71.2895 20.7671 71.3423 20.5293 71.3423C19.9083 71.3423 19.6045 71.0385 19.6045 70.4175C19.6045 69.9023 19.8159 69.506 20.2386 69.2417C20.5821 69.0172 21.0313 68.885 21.6126 68.8454C21.9296 68.819 22.2863 68.8058 22.6695 68.7926C22.8412 68.7661 22.9997 68.7529 23.1715 68.7529C23.33 68.7529 23.4753 68.7661 23.5942 68.7926C23.832 68.8586 24.017 68.9775 24.1491 69.1757C24.2812 69.3739 24.3473 69.5852 24.3473 69.8362C24.3605 70.1401 24.268 70.4175 24.0698 70.6553Z" fill="#F7923A"/>
<path d="M29.1428 68.9642C28.654 68.9642 28.3765 68.8189 28.3105 68.5151L27.8613 68.5415C27.8613 68.6207 27.9406 68.7793 28.1255 69.0171C28.2841 69.2285 28.3898 69.3606 28.4294 69.4002C28.5483 69.5191 28.6936 69.5984 28.8521 69.6248C29.156 69.7569 29.3145 70.0079 29.3145 70.3778C29.3145 70.4835 29.3013 70.5892 29.2881 70.6949C29.1296 71.7121 29.0503 72.3859 29.0503 72.7294V72.7822C29.0635 72.8879 29.0767 73.02 29.1164 73.1654C29.156 73.3635 29.1956 73.456 29.2221 73.456C29.2353 73.456 29.2353 73.4428 29.2353 73.4032C29.2353 73.4428 29.1692 73.4692 29.0371 73.4824L28.4294 73.5353C28.2444 73.5353 28.1123 73.456 28.0463 73.2711C28.0198 73.205 28.0066 73.0993 28.0066 72.954C28.0066 72.7822 28.0198 72.6501 28.0331 72.5444C28.0859 72.1217 28.1255 71.7518 28.1652 71.4611L28.2312 70.9591C28.2973 70.4439 28.3237 70.1664 28.3237 70.14C28.3237 69.8097 28.218 69.6512 27.9934 69.6644C27.7953 69.6776 27.6235 69.8626 27.4518 70.2193C27.3197 70.5099 27.2404 70.7742 27.2008 71.012C27.1347 71.4611 27.0819 72.0424 27.0422 72.7426C27.029 73.0333 27.0554 73.205 27.1611 73.2711C27.214 73.3239 27.2536 73.3503 27.2536 73.3635C27.2536 73.4032 27.1875 73.4296 27.0554 73.4428C26.7119 73.4824 26.5006 73.4956 26.4213 73.4956C26.2363 73.4956 26.1174 73.4296 26.0514 73.2843C26.025 73.2182 26.0118 73.0861 26.0118 72.8615C26.0118 72.3991 26.0514 71.8839 26.1174 71.3158C26.1703 70.8798 26.3024 70.5364 26.4874 70.2721C26.6723 70.0343 26.963 69.7965 27.3725 69.5984C27.2536 69.4663 27.0422 69.136 26.7119 68.5811H26.3156C26.1967 68.9246 25.7343 69.1096 24.9417 69.0963C24.8624 69.0963 24.8228 69.0831 24.8228 69.0303C24.8228 69.0171 24.8624 68.9378 24.9549 68.7925C25.0341 68.634 25.087 68.5415 25.087 68.4886C25.1002 68.4754 25.1002 68.4622 25.1002 68.4358C25.1002 68.3829 25.0606 68.2905 25.0077 68.1716L24.902 67.9866C24.902 67.9073 25.1002 67.8677 25.5097 67.8677C25.9721 67.8677 26.2363 68.0395 26.3288 68.4094L28.2576 68.3169C28.3501 67.9338 28.6672 67.7356 29.2353 67.7356C29.2749 67.7356 29.3277 67.7356 29.3806 67.7488C29.6184 67.762 29.7373 67.7884 29.7373 67.8281C29.7373 67.8017 29.6977 67.8677 29.6316 67.9998C29.5655 68.1319 29.5391 68.2508 29.5391 68.3169V68.3829C29.5655 68.5151 29.6316 68.6472 29.7637 68.7793C29.7637 68.8057 29.7241 68.8321 29.658 68.8585C29.5259 68.9378 29.3542 68.9642 29.1428 68.9642Z" fill="#F7923A"/>
<path d="M35.9465 73.4032C35.9465 73.4956 35.8012 73.5353 35.5238 73.5353C35.4577 73.5353 35.3652 73.5485 35.2331 73.5617C35.101 73.5749 35.0085 73.5881 34.9425 73.5881C34.7707 73.5881 34.6518 73.5221 34.6254 73.39C34.6122 73.3371 34.599 73.205 34.599 72.9672C34.599 72.769 34.599 72.4652 34.6254 72.0556C34.6386 71.5404 34.6518 71.3158 34.6518 71.3687C34.6518 71.2894 34.6651 71.0648 34.6915 70.7213C34.7179 70.4307 34.7179 70.2061 34.7179 70.0343C34.7179 69.2945 34.4933 68.9246 34.0573 68.9246C33.8063 68.9246 33.6346 69.0831 33.5421 69.4266C33.4893 69.5984 33.4496 69.823 33.4232 70.1004C33.3704 70.7213 33.3439 71.1044 33.3439 71.263C33.3439 71.6593 33.41 71.8971 33.5289 71.9764C33.595 72.016 33.6346 72.0556 33.6346 72.0688C33.6346 72.0953 33.5025 72.1349 33.2515 72.1745C32.9476 72.2142 32.7759 72.2274 32.723 72.2274C32.5116 72.2274 32.3927 72.1217 32.3399 71.9103C32.3267 71.8443 32.3135 71.6461 32.3135 71.329C32.3135 70.3778 32.4588 69.7173 32.7759 69.3606C32.9476 69.1624 33.2383 69.0039 33.6346 68.8585C34.0045 68.7396 34.3348 68.6736 34.6386 68.6736C35.0085 68.6736 35.286 68.7925 35.4841 69.0435C35.6691 69.2681 35.7484 69.5587 35.7352 69.9286V70.1004C35.7219 70.6156 35.7087 70.9459 35.6955 71.1044L35.6559 71.5668C35.6295 72.0028 35.6163 72.3991 35.6163 72.7955V72.9672C35.6163 73.0333 35.6295 73.0993 35.6691 73.1786C35.7087 73.2711 35.7484 73.3239 35.8012 73.3371C35.9069 73.3371 35.9465 73.3767 35.9465 73.4032Z" fill="#F7923A"/>
<path d="M39.9231 71.1441L39.7249 71.514C39.4343 72.0821 39.1965 72.5709 39.0247 73.0069C38.9983 73.0597 38.9983 73.0993 38.9983 73.139C38.9983 73.205 39.0247 73.2447 39.0908 73.2711C39.1172 73.2843 39.1436 73.2975 39.1436 73.3239C39.1436 73.3636 39.0908 73.39 38.9719 73.4032C38.5491 73.4693 38.2849 73.5089 38.166 73.5089C37.9282 73.5089 37.7829 73.4164 37.7565 73.2182V73.1918C37.7565 73.0861 37.849 72.8483 38.0471 72.4784L38.2717 72.0821C38.7341 71.2234 38.9719 70.6949 38.9719 70.51V70.4571C38.9058 70.4043 38.8002 70.3778 38.668 70.3911C38.6284 70.3911 38.5227 70.4043 38.3642 70.4175C38.2453 70.4307 38.1528 70.4439 38.1 70.4439C37.9943 70.4439 37.9414 70.4175 37.9414 70.3514L38.0075 70.2061C38.0868 70.0344 38.1396 69.9022 38.1792 69.8494C38.3378 69.5455 38.4302 69.2681 38.4963 69.0039C38.4435 68.8321 38.3113 68.7397 38.1 68.7397C38.0207 68.7397 37.9414 68.7529 37.8622 68.7925C37.7565 68.8321 37.7036 68.8718 37.7036 68.9246C37.7036 69.2549 37.5847 69.5191 37.3469 69.7173C37.1091 69.9155 36.8317 70.0211 36.4882 70.0211C36.4486 70.0211 36.4089 70.0211 36.3957 70.0211C36.3297 70.0211 36.29 69.9947 36.29 69.9683L36.4089 69.7437C36.4882 69.5984 36.5278 69.4927 36.541 69.4266C36.541 69.4134 36.5543 69.387 36.541 69.3474C36.541 69.2945 36.5146 69.2153 36.4882 69.1096C36.4486 69.0039 36.4354 68.9246 36.4354 68.885C36.4354 68.8454 36.475 68.8057 36.541 68.7925C37.3337 68.6208 37.9414 68.5415 38.3642 68.5415C38.8266 68.5415 39.1965 68.6076 39.4607 68.7529C39.5664 68.8057 39.6192 68.9114 39.6192 69.0435C39.6192 69.1492 39.5268 69.4134 39.355 69.8626C39.2493 70.1268 39.1965 70.2589 39.1965 70.2854C39.1965 70.3514 39.2493 70.3778 39.3418 70.3646C39.4211 70.3646 39.5268 70.3514 39.6721 70.325C39.8174 70.2986 39.9231 70.2854 40.0024 70.2854C40.1741 70.2854 40.2666 70.3382 40.2666 70.4439C40.2005 70.5364 40.1081 70.7742 39.9231 71.1441Z" fill="#F7923A"/>
<path d="M44.7716 72.6502C44.7452 72.9672 44.7848 73.139 44.8905 73.1786C44.9301 73.1918 44.9434 73.205 44.9434 73.2314C44.9434 73.2843 44.8905 73.3107 44.7716 73.3371C44.3489 73.4164 44.0978 73.456 43.9922 73.456C43.7411 73.456 43.6222 73.3503 43.6222 73.139V73.0597C43.6222 72.9276 43.6751 72.452 43.7808 71.6593C43.8733 70.9856 43.9129 70.5496 43.9129 70.325C43.9129 70.0872 43.8733 69.9155 43.8204 69.8098C43.7411 69.6512 43.5826 69.572 43.3712 69.572C43.107 69.572 42.8824 69.7041 42.6843 69.9815C42.5389 70.1929 42.4332 70.4439 42.3672 70.7478C42.4993 70.7213 42.5918 70.7081 42.6578 70.7081C42.7371 70.7081 42.7767 70.7345 42.7635 70.7874C42.7635 70.8138 42.7635 70.827 42.7503 70.8402C42.6446 71.1441 42.5786 71.3555 42.5389 71.4612C42.42 71.8707 42.3276 72.2935 42.2483 72.7294C42.2351 72.8087 42.2351 72.888 42.2351 72.9672C42.2351 73.1125 42.2747 73.205 42.354 73.2314C42.4068 73.2579 42.4332 73.2711 42.4332 73.2975C42.4332 73.3503 42.3408 73.39 42.1426 73.4164C41.7463 73.4692 41.5349 73.4957 41.4952 73.4957C41.2442 73.4957 41.1253 73.3636 41.1253 73.0729C41.1253 72.7955 41.1782 72.4388 41.2839 72.0292C41.4028 71.5933 41.5349 71.2762 41.6934 71.0516C41.6934 71.0516 41.6934 71.0516 41.6802 71.0516C41.667 71.0516 41.6538 71.0516 41.6142 71.0516L41.482 71.078C41.3631 71.0912 41.2707 71.1045 41.2178 71.1045C41.165 71.1045 41.1386 71.0912 41.1253 71.078C41.1121 71.0648 41.1121 71.0252 41.1121 70.9723C41.1121 70.6817 41.3103 70.3382 41.7331 69.9419C41.6538 69.9419 41.5481 69.9551 41.3896 69.9947C41.2442 70.0211 41.1253 70.0476 41.0461 70.0476C40.9668 70.0476 40.9272 70.0344 40.914 70.0079C40.8743 69.9419 40.8479 69.7833 40.8479 69.5455V69.4134C40.8479 69.3738 40.8479 69.3077 40.8479 69.2285C40.8479 69.136 40.8611 69.0699 40.8611 69.0303V68.885C40.8611 68.5547 40.8083 68.3698 40.7158 68.3433C40.6497 68.3301 40.6101 68.3037 40.6101 68.2641C40.6101 68.2244 40.6894 68.1716 40.8611 68.1187C41.2442 68.0131 41.5349 67.9602 41.7331 67.9602C41.8784 67.9602 41.9444 67.9866 41.9576 68.0527C41.9576 68.0791 41.9576 68.1319 41.9576 68.2244C41.9576 68.2773 41.9576 68.4622 41.9444 68.7793C41.9312 68.9907 41.9312 69.2021 41.9312 69.387C41.9312 69.572 41.9444 69.6909 41.9709 69.7569C42.1294 69.6777 42.354 69.5852 42.6446 69.4795C43.0277 69.3474 43.3712 69.2945 43.6751 69.2945C43.8072 69.2945 43.9129 69.3077 43.9922 69.321C44.3356 69.387 44.5867 69.5059 44.732 69.6512C44.8905 69.823 44.9698 70.074 44.9698 70.4043C44.9698 70.6024 44.9566 70.8006 44.9434 70.9856C44.8773 71.7122 44.8112 72.2538 44.7716 72.6502Z" fill="#F7923A"/>
</svg>
