<svg width="52" height="53" viewBox="0 0 52 53" fill="none" xmlns="http://www.w3.org/2000/svg">
<path d="M25.9999 11.9385C24.1679 11.9385 22.377 12.4817 20.8537 13.4996C19.3304 14.5174 18.1431 15.9641 17.442 17.6567C16.741 19.3493 16.5575 21.2118 16.9149 23.0086C17.2723 24.8054 18.1546 26.456 19.45 27.7514C20.7455 29.0469 22.396 29.9291 24.1928 30.2865C25.9897 30.6439 27.8522 30.4605 29.5447 29.7594C31.2373 29.0583 32.684 27.871 33.7018 26.3477C34.7197 24.8244 35.2629 23.0335 35.2629 21.2015C35.2629 18.7448 34.287 16.3887 32.5499 14.6515C30.8127 12.9144 28.4566 11.9385 25.9999 11.9385Z" fill="black"/>
<path d="M26 0.822266C20.8703 0.822266 15.8557 2.34341 11.5905 5.19334C7.3253 8.04327 4.00097 12.094 2.0379 16.8332C0.0748364 21.5725 -0.438791 26.7874 0.561971 31.8186C1.56273 36.8498 4.03293 41.4712 7.66021 45.0985C11.2875 48.7257 15.9089 51.1959 20.9401 52.1967C25.9712 53.1975 31.1862 52.6838 35.9254 50.7208C40.6647 48.7577 44.7154 45.4334 47.5653 41.1682C50.4153 36.9029 51.9364 31.8884 51.9364 26.7587C51.9286 19.8823 49.1935 13.2898 44.3311 8.42753C39.4688 3.56521 32.8764 0.830111 26 0.822266ZM40.806 43.295C40.7691 40.865 39.779 38.5467 38.0492 36.8397C36.3193 35.1328 33.9881 34.1736 31.5578 34.1691H20.4422C18.0119 34.1736 15.6807 35.1328 13.9509 36.8397C12.221 38.5467 11.231 40.865 11.194 43.295C7.83446 40.2951 5.46529 36.3456 4.40024 31.9694C3.33519 27.5932 3.62449 22.9967 5.22984 18.7885C6.83519 14.5804 9.68086 10.9591 13.3901 8.40415C17.0992 5.84923 21.497 4.4812 26.0009 4.4812C30.5049 4.4812 34.9026 5.84923 38.6118 8.40415C42.321 10.9591 45.1667 14.5804 46.772 18.7885C48.3774 22.9967 48.6667 27.5932 47.6016 31.9694C46.5366 36.3456 44.1674 40.2951 40.8078 43.295H40.806Z" fill="black"/>
</svg>
